<svg width="120" height="32" viewBox="0 0 120 32" fill="#F5F0EB" xmlns="http://www.w3.org/2000/svg">
<path d="M34.8493 20.5328C34.8861 21.3192 34.7613 22.1048 34.4824 22.8421C34.2036 23.5794 33.7764 24.2532 33.2268 24.8225C32.6772 25.3919 32.0166 25.8451 31.2849 26.1548C30.5532 26.4644 29.7655 26.6241 28.9697 26.6241C28.1738 26.6241 27.3862 26.4644 26.6545 26.1548C25.9227 25.8451 25.2621 25.3919 24.7125 24.8225C24.1629 24.2532 23.7358 23.5794 23.4569 22.8421C23.178 22.1048 23.0532 21.3192 23.09 20.5328V7.65482H17.7587V20.5328C17.7082 22.0204 17.9609 23.5027 18.5016 24.8917C19.0423 26.2806 19.86 27.5477 20.906 28.6177C21.952 29.6876 23.205 30.5384 24.5903 31.1195C25.9756 31.7006 27.4649 32 28.9697 32C30.4744 32 31.9637 31.7006 33.349 31.1195C34.7343 30.5384 35.9873 29.6876 37.0333 28.6177C38.0793 27.5477 38.897 26.2806 39.4377 24.8917C39.9784 23.5027 40.2311 22.0204 40.1807 20.5328V7.65482H34.8493V20.5328Z"/>
<path d="M68.123 7.31799C66.8804 7.31803 65.6503 7.56402 64.5052 8.04146C63.3602 8.51891 62.3233 9.21817 61.4556 10.0981C60.1599 8.78275 58.4968 7.87989 56.6793 7.50506C54.8617 7.13024 52.9724 7.30051 51.2533 7.99408C49.5341 8.68765 48.0634 9.87295 47.0293 11.3982C45.9953 12.9235 45.445 14.7193 45.4489 16.5558V31.2539H50.7803V16.5558C50.8377 15.5444 51.2843 14.5931 52.0285 13.8972C52.7726 13.2013 53.7579 12.8136 54.782 12.8136C55.8061 12.8136 56.7913 13.2013 57.5355 13.8972C58.2796 14.5931 58.7262 15.5444 58.7837 16.5558V31.2539H64.1276V16.5558C64.185 15.5444 64.6316 14.5931 65.3758 13.8972C66.12 13.2013 67.1052 12.8136 68.1293 12.8136C69.1534 12.8136 70.1386 13.2013 70.8828 13.8972C71.627 14.5931 72.0736 15.5444 72.131 16.5558V31.2539H77.4623V16.5558C77.459 14.1068 76.474 11.759 74.7232 10.0273C72.9725 8.29561 70.5989 7.32129 68.123 7.31799Z"/>
<path d="M5.34397 20.1584V7.69174H0V20.1584C0.00333594 23.1 1.18623 25.9202 3.28915 28.0003C5.39208 30.0803 8.24331 31.2504 11.2173 31.2537H15.1244V25.9803H11.2173C9.65843 25.977 8.16456 25.3621 7.06346 24.2707C5.96236 23.1792 5.34397 21.7003 5.34397 20.1584Z"/>
<path d="M88.6671 7.74185H83.3357V31.2539H88.6671V7.74185Z"/>
<path d="M105.279 7.28073C102.013 7.28073 98.8807 8.56396 96.5714 10.8481C94.2621 13.1323 92.9648 16.2303 92.9648 19.4606C92.9648 22.6909 94.2621 25.7889 96.5714 28.0731C98.8807 30.3573 102.013 31.6405 105.279 31.6405C107.468 31.6363 109.626 31.1162 111.572 30.1233C113.518 29.1304 115.198 27.6932 116.471 25.9308L116.584 25.7438L116.408 25.6441L112.438 23.2629L112.261 23.1632L112.148 23.3253C111.339 24.3727 110.301 25.2253 109.111 25.8191C107.921 26.4128 106.611 26.7323 105.279 26.7536C103.678 26.7207 102.134 26.1647 100.887 25.1724C99.6398 24.1801 98.7598 22.8073 98.3844 21.2683H117.555V19.9468C117.603 18.3143 117.323 16.6886 116.73 15.1644C116.137 13.6403 115.243 12.2481 114.1 11.0692C112.957 9.89023 111.589 8.94808 110.074 8.29765C108.56 7.64722 106.93 7.30153 105.279 7.28073ZM98.8129 16.2692C99.3621 15.0195 100.268 13.9557 101.42 13.2085C102.572 12.4614 103.92 12.0633 105.298 12.0633C106.675 12.0633 108.023 12.4614 109.175 13.2085C110.327 13.9557 111.233 15.0195 111.782 16.2692H98.8129Z"/>
<path d="M85.995 0.000177157C85.6116 -0.00405748 85.2311 0.0676633 84.8761 0.211114C84.5211 0.354564 84.1988 0.566842 83.928 0.835441C83.6481 1.1094 83.426 1.4356 83.2745 1.79513C83.1231 2.15466 83.0453 2.54035 83.0457 2.92983C83.0438 3.31287 83.1197 3.69239 83.2691 4.04578C83.4186 4.39917 83.6383 4.7192 83.9154 4.98683C84.1849 5.26313 84.508 5.48282 84.8653 5.63276C85.2226 5.78271 85.6069 5.85982 85.995 5.85949C86.7893 5.85486 87.5498 5.54141 88.1124 4.98683C88.389 4.71946 88.6076 4.39919 88.7549 4.04555C88.9023 3.69191 88.9753 3.31229 88.9695 2.92983C88.9734 2.54579 88.8995 2.16486 88.7523 1.80945C88.6051 1.45405 88.3876 1.13136 88.1124 0.860374C87.8353 0.584651 87.5052 0.366517 87.1415 0.218795C86.7779 0.0710728 86.3881 -0.00325621 85.995 0.000177157Z"/>
<path d="M118.198 7.65456C118.385 7.60804 118.55 7.49744 118.663 7.3423C118.776 7.18716 118.83 6.99749 118.815 6.80683C118.824 6.68129 118.804 6.55542 118.757 6.43836C118.711 6.3213 118.638 6.21598 118.545 6.13004C118.452 6.0441 118.341 5.97969 118.22 5.9415C118.099 5.90331 117.971 5.89229 117.845 5.90923H116.811V8.72669H117.29V7.72936H117.668L118.336 8.72669H118.916L118.198 7.67949V7.65456ZM117.744 7.28056H117.29V6.3331H117.782C118.122 6.3331 118.311 6.50763 118.311 6.80683C118.311 7.10603 118.134 7.28056 117.744 7.28056Z"/>
<path d="M117.744 5.0742C117.298 5.0742 116.862 5.20508 116.491 5.45028C116.12 5.69549 115.83 6.044 115.66 6.45176C115.489 6.85952 115.444 7.30821 115.531 7.74108C115.618 8.17395 115.833 8.57157 116.149 8.88366C116.464 9.19574 116.866 9.40827 117.304 9.49438C117.741 9.58048 118.195 9.53629 118.607 9.36739C119.02 9.19849 119.372 8.91247 119.62 8.5455C119.868 8.17853 120 7.74708 120 7.30573C120 6.71389 119.762 6.1463 119.339 5.7278C118.916 5.30931 118.342 5.0742 117.744 5.0742ZM117.744 9.21312C117.362 9.20329 116.991 9.08208 116.678 8.8647C116.366 8.64731 116.125 8.34341 115.986 7.99114C115.847 7.63886 115.817 7.25389 115.898 6.88449C115.98 6.5151 116.17 6.17774 116.444 5.91472C116.719 5.6517 117.066 5.47474 117.442 5.40602C117.818 5.33731 118.206 5.37991 118.557 5.52847C118.909 5.67703 119.208 5.92495 119.417 6.24112C119.627 6.55729 119.738 6.92765 119.735 7.30573C119.732 7.81275 119.526 8.29787 119.162 8.65522C118.799 9.01258 118.307 9.21313 117.794 9.21312"/>
</svg>
